<svg xmlns:dc="http://purl.org/dc/elements/1.1/" xmlns:cc="http://creativecommons.org/ns#" xmlns:rdf="http://www.w3.org/1999/02/22-rdf-syntax-ns#" xmlns:svg="http://www.w3.org/2000/svg" xmlns="http://www.w3.org/2000/svg" xmlns:sodipodi="http://sodipodi.sourceforge.net/DTD/sodipodi-0.dtd" xmlns:inkscape="http://www.inkscape.org/namespaces/inkscape" version="1.1" x="0px" y="0px" viewBox="0 0 100 100"><g transform="translate(0,-952.36218)"><path style="opacity:1;color:#000000;fill:#000000;stroke:none;stroke-width:3;stroke-linecap:round;stroke-linejoin:round;stroke-miterlimit:4;stroke-opacity:1;stroke-dasharray:none;stroke-dashoffset:0;marker:none;visibility:visible;display:inline;overflow:visible;enable-background:accumulate" d="M 28 13 C 18.810102 13 6 21.10268 6 38.53125 C 6 57.14412 30.588235 75.5173 50 87 C 69.411766 75.5173 94 57.14412 94 38.53125 C 94 21.10268 81.189898 13 72 13 C 60.550021 13 53.882353 18.6207 50 25 C 46.117647 18.6207 39.449979 13 28 13 z M 14.84375 32.46875 A 1.50015 1.50015 0 0 1 16.46875 34.3125 C 15.174284 40.3199 19.020205 47.20771 22.75 50.9375 A 1.5026019 1.5026019 0 0 1 20.625 53.0625 C 16.354795 48.7923 11.898666 41.23279 13.53125 33.65625 A 1.50015 1.50015 0 0 1 14.84375 32.46875 z " transform="translate(0,952.36218)"/></g></svg>